<svg height="511pt" viewBox="1 -1 511.99962 511" width="511pt" xmlns="http://www.w3.org/2000/svg"><path d="m348.953125 473.886719h-272.28125v-83.671875c0-29.871094 20.292969-55.097656 47.816406-62.609375l-43.195312-282.925781h-44.015625v-29.925782h69.71875l51.984375 340.5h-17.417969c-19.28125 0-34.964844 15.683594-34.964844 34.960938v53.746094h242.355469zm0 0" fill="#e9edf5"/><path d="m86.03125 75.703125 42.675781 279.546875h205.425781c27.710938 0 54.09375-8.765625 76.289063-25.351562 22.199219-16.585938 38.085937-39.398438 45.941406-65.972657l55.636719-188.222656zm0 0" fill="#f03800"/><path d="m209.128906 408.691406c-27.699218 0-50.234375 22.535156-50.234375 50.234375s22.535157 50.234375 50.234375 50.234375c27.699219 0 50.234375-22.535156 50.234375-50.234375s-22.535156-50.234375-50.234375-50.234375zm0 0" fill="#005fe4"/><path d="m349.855469 408.691406c-27.699219 0-50.238281 22.535156-50.238281 50.234375s22.535156 50.234375 50.238281 50.234375c27.699219 0 50.234375-22.535156 50.234375-50.234375s-22.535156-50.234375-50.234375-50.234375zm0 0" fill="#005fe4"/><path d="m0 29.71875 29.21875-29.21875 29.21875 29.21875-29.21875 29.21875zm0 0" fill="#fdbf00"/><path d="m272.8125 443.960938h76.140625v29.925781h-76.140625zm0 0" fill="#c5d0d8"/><path d="m272.8125 75.703125v279.546875h61.320312c27.710938 0 54.09375-8.765625 76.289063-25.351562 22.199219-16.585938 38.085937-39.398438 45.941406-65.972657l55.636719-188.222656zm0 0" fill="#c30010"/><path d="m349.855469 408.691406c-27.699219 0-50.238281 22.535156-50.238281 50.234375s22.535156 50.234375 50.238281 50.234375c27.699219 0 50.234375-22.535156 50.234375-50.234375s-22.535156-50.234375-50.234375-50.234375zm0 0" fill="#00317e"/><path d="m86.03125 75.703125 42.675781 279.546875h205.425781c27.710938 0 54.09375-8.765625 76.289063-25.351562 22.199219-16.585938 38.085937-39.398438 45.941406-65.972657l55.636719-188.222656zm385.917969 29.925781-15.925781 53.871094h-326.929688l-8.222656-53.871094zm-330.210938 136.667969-8.074219-52.871094h313.515626l-15.628907 52.871094zm250.773438 63.628906c-16.984375 12.691407-37.171875 19.402344-58.378907 19.402344h-179.71875l-8.109374-53.105469h274.660156c-6.71875 13.195313-16.351563 24.664063-28.453125 33.703125zm0 0" fill="#c30010"/><path d="m272.8125 75.703125v29.925781h199.136719l-15.925781 53.871094h-183.210938v29.925781h174.367188l-15.628907 52.871094h-158.738281v29.925781h148.152344c-6.722656 13.195313-16.351563 24.664063-28.453125 33.703125-16.984375 12.691407-37.171875 19.402344-58.378907 19.402344h-61.320312v29.921875h61.320312c27.710938 0 54.09375-8.765625 76.289063-25.351562 22.199219-16.585938 38.085937-39.398438 45.941406-65.972657l55.636719-188.222656zm0 0" fill="#740006"/><path d="m480.132812 290.027344c0 56.28125-45.621093 101.902344-101.898437 101.902344-56.28125 0-101.902344-45.621094-101.902344-101.902344 0-56.277344 45.621094-101.898438 101.902344-101.898438 56.277344 0 101.898437 45.621094 101.898437 101.898438zm0 0" fill="#64c7f3"/><path d="m480.132812 290.027344c0 56.28125-45.621093 101.902344-101.898437 101.902344v-203.800782c56.277344 0 101.898437 45.621094 101.898437 101.898438zm0 0" fill="#03a3dd"/><path d="m392.15625 250.566406h-29.925781v25.199219h-25.136719v30h25.136719v25.199219h29.925781v-25.199219h25.132812v-30h-25.132812zm0 0" fill="#ffda2d"/><path d="m392.15625 275.765625v-25.199219h-13.921875v80.398438h13.921875v-25.199219h25.132812v-30zm0 0" fill="#fdbf00"/></svg>